<svg width="16" height="18" viewBox="0 0 16 18" fill="none" xmlns="http://www.w3.org/2000/svg">
<path d="M15.2807 8.03073C15.211 8.10046 15.1283 8.15578 15.0373 8.19352C14.9462 8.23127 14.8486 8.25069 14.7501 8.25069C14.6515 8.25069 14.5539 8.23127 14.4628 8.19352C14.3718 8.15578 14.2891 8.10046 14.2194 8.03073L8.75005 2.56041V17.2501C8.75005 17.449 8.67103 17.6398 8.53038 17.7804C8.38973 17.9211 8.19896 18.0001 8.00005 18.0001C7.80114 18.0001 7.61037 17.9211 7.46972 17.7804C7.32907 17.6398 7.25005 17.449 7.25005 17.2501V2.56041L1.78068 8.03073C1.63995 8.17146 1.44907 8.25052 1.25005 8.25052C1.05103 8.25052 0.860156 8.17146 0.719426 8.03073C0.578695 7.89 0.499634 7.69912 0.499634 7.5001C0.499634 7.30108 0.578695 7.11021 0.719426 6.96948L7.46943 0.219477C7.53908 0.149744 7.6218 0.0944251 7.71285 0.0566819C7.80389 0.0189387 7.90149 -0.000488281 8.00005 -0.000488281C8.09861 -0.000488281 8.19621 0.0189387 8.28726 0.0566819C8.3783 0.0944251 8.46102 0.149744 8.53068 0.219477L15.2807 6.96948C15.3504 7.03913 15.4057 7.12185 15.4435 7.2129C15.4812 7.30395 15.5006 7.40154 15.5006 7.5001C15.5006 7.59866 15.4812 7.69626 15.4435 7.78731C15.4057 7.87836 15.3504 7.96107 15.2807 8.03073Z" fill="#F5F6F6"/>
</svg>
