<svg width="48" height="48" viewBox="0 0 48 48" fill="none" xmlns="http://www.w3.org/2000/svg">
<rect width="48" height="48" rx="8" fill="#333333"/>
<path d="M28.3748 15.2498C29.5342 15.2533 30.6451 15.7154 31.4648 16.5352C32.2846 17.3549 32.7467 18.4658 32.7502 19.6252V28.3748C32.7467 29.5342 32.2846 30.6451 31.4648 31.4648C30.6451 32.2846 29.5342 32.7467 28.3748 32.7502H19.6252C18.4658 32.7467 17.3549 32.2846 16.5352 31.4648C15.7154 30.6451 15.2533 29.5342 15.2498 28.3748V19.6252C15.2533 18.4658 15.7154 17.3549 16.5352 16.5352C17.3549 15.7154 18.4658 15.2533 19.6252 15.2498H28.3748ZM28.3748 13.5H19.6252C16.2562 13.5 13.5 16.2562 13.5 19.6252V28.3748C13.5 31.7437 16.2562 34.5 19.6252 34.5H28.3748C31.7437 34.5 34.5 31.7437 34.5 28.3748V19.6252C34.5 16.2562 31.7437 13.5 28.3748 13.5Z" fill="#F5F6F6"/>
<path d="M29.6873 19.6252C29.4278 19.6252 29.174 19.5483 28.9582 19.404C28.7423 19.2598 28.5741 19.0548 28.4748 18.815C28.3754 18.5752 28.3494 18.3113 28.4001 18.0567C28.4507 17.8021 28.5757 17.5682 28.7593 17.3847C28.9428 17.2011 29.1767 17.0761 29.4313 17.0255C29.6859 16.9748 29.9498 17.0008 30.1896 17.1002C30.4294 17.1995 30.6344 17.3677 30.7786 17.5836C30.9229 17.7994 30.9998 18.0532 30.9998 18.3127C31.0002 18.4852 30.9665 18.656 30.9007 18.8155C30.8349 18.9749 30.7382 19.1197 30.6163 19.2416C30.4943 19.3636 30.3495 19.4603 30.1901 19.5261C30.0306 19.5919 29.8598 19.6256 29.6873 19.6252ZM24 20.4999C24.6923 20.4999 25.369 20.7052 25.9446 21.0898C26.5202 21.4744 26.9688 22.0211 27.2337 22.6606C27.4986 23.3002 27.568 24.004 27.4329 24.6829C27.2978 25.3619 26.9645 25.9856 26.475 26.4751C25.9855 26.9646 25.3618 27.2979 24.6828 27.433C24.0039 27.568 23.3001 27.4987 22.6606 27.2338C22.021 26.9689 21.4743 26.5203 21.0897 25.9447C20.7051 25.3691 20.4998 24.6924 20.4998 24.0001C20.5008 23.0721 20.8699 22.1824 21.5261 21.5262C22.1823 20.87 23.072 20.5009 24 20.4999ZM24 18.7501C22.9617 18.7501 21.9466 19.058 21.0833 19.6349C20.2199 20.2118 19.547 21.0317 19.1496 21.991C18.7523 22.9503 18.6483 24.0059 18.8509 25.0243C19.0535 26.0427 19.5535 26.9782 20.2877 27.7124C21.0219 28.4466 21.9574 28.9466 22.9758 29.1492C23.9942 29.3518 25.0498 29.2478 26.0091 28.8505C26.9684 28.4531 27.7883 27.7802 28.3652 26.9168C28.9421 26.0535 29.25 25.0384 29.25 24.0001C29.25 22.6077 28.6969 21.2723 27.7123 20.2878C26.7277 19.3032 25.3924 18.7501 24 18.7501Z" fill="#F5F6F6"/>
</svg>
