<svg width="69" height="104" viewBox="0 0 69 104" fill="none" xmlns="http://www.w3.org/2000/svg">
<g clip-path="url(#clip0_207_1384)">
<path d="M44.1524 13.8078C42.2613 20.5845 40.6549 27.1911 37.2662 33.3676C35.5228 36.5451 33.9816 39.7306 31.5094 42.4268C27.9846 46.2708 22.6701 50.6406 17.1576 50.87C16.3522 50.9035 14.6249 50.6088 16.4367 50.622C18.4025 50.6364 20.5577 50.8426 22.4793 51.2662C25.2674 51.881 27.2127 54.4036 28.4595 56.801C30.6887 61.0877 30.9929 65.9536 30.9015 70.7216C30.8101 75.4914 29.8904 80.098 29.3548 84.8209C29.1617 86.5247 28.9446 88.2271 28.6711 89.9201C28.6498 90.0523 28.3237 91.9421 28.2067 91.5003C27.5531 89.0351 28.3444 85.7086 28.7317 83.2758C29.3513 79.383 30.562 75.6412 31.9768 71.9696C32.9638 69.4082 33.9838 66.6027 35.6866 64.3999C37.7161 61.7744 40.9352 60.6147 44.0224 59.3103C44.0224 59.3103 52.0708 58.2904 51.2264 56.6288C49.2793 52.7975 41.1499 48.0381 40.4774 43.7276C39.7096 38.8068 40.704 33.3819 41.8215 28.5904C43.0068 23.5085 44.009 18.3567 45.7094 13.424" stroke="#7DFFAF" stroke-width="1.5" stroke-linecap="round"/>
</g>
<defs>
<clipPath id="clip0_207_1384">
<rect width="45" height="95" fill="white" transform="translate(24.5878) rotate(15)"/>
</clipPath>
</defs>
</svg>
