<svg width="216" height="25" viewBox="0 0 216 25" fill="none" xmlns="http://www.w3.org/2000/svg">
<g clip-path="url(#clip0_269_156)">
<path d="M0.264008 0.462219H23.736V23.9344H0.264008V0.462219Z" fill="#9955E8"/>
<path d="M21.8151 18.3362C21.6431 17.2654 20.9449 16.366 18.8766 15.5273C18.1581 15.1971 17.3571 14.9607 17.1184 14.4162C17.0336 14.0993 17.0224 13.9208 17.076 13.729C17.2299 13.1065 17.973 12.9124 18.5619 13.0909C18.9413 13.218 19.3003 13.5103 19.5169 13.9767C20.5298 13.3208 20.5277 13.3251 21.2349 12.8743C20.976 12.4729 20.8378 12.2877 20.6683 12.1159C20.0591 11.4355 19.2291 11.085 17.9016 11.1118L17.2101 11.2013C16.5474 11.3687 15.9159 11.7165 15.5456 12.1828C14.4345 13.4436 14.7514 15.6501 16.1034 16.5582C17.4354 17.5579 19.3922 17.7853 19.6421 18.7202C19.8853 19.8647 18.801 20.2352 17.7233 20.1036C16.929 19.9384 16.4873 19.5347 16.0097 18.8007C15.1307 19.3093 15.1307 19.3093 14.2269 19.8291C14.4413 20.2977 14.6664 20.5097 15.0257 20.9157C16.7259 22.6403 20.9807 22.5555 21.7438 19.9452C21.7748 19.8555 21.9803 19.2578 21.8151 18.3362ZM13.0241 11.25H10.8287L10.8197 16.926C10.8197 18.1332 10.8821 19.2398 10.6858 19.579C10.3646 20.2461 9.53232 20.1634 9.15301 20.034C8.76695 19.8443 8.57064 19.5745 8.3432 19.1931C8.28076 19.0836 8.23389 18.9988 8.21814 18.9923L6.43314 20.0854C6.72995 20.6946 7.1672 21.2233 7.72726 21.5668C8.56389 22.069 9.68832 22.2229 10.8643 21.9529C11.6297 21.73 12.2901 21.2682 12.6358 20.5652C13.1357 19.6437 13.0284 18.5282 13.0239 17.2945C13.0352 15.2817 13.0241 13.2692 13.0241 11.25Z" fill="#2C243B"/>
</g>
<g clip-path="url(#clip1_269_156)">
<path d="M60 14.1375C61.1805 14.1375 62.1375 13.1805 62.1375 12C62.1375 10.8195 61.1805 9.86249 60 9.86249C58.8195 9.86249 57.8625 10.8195 57.8625 12C57.8625 13.1805 58.8195 14.1375 60 14.1375Z" fill="#9955E8"/>
<path d="M68.1188 8.47499C67.7063 8.32499 67.275 8.17499 66.825 8.04374C66.9375 7.59374 67.0313 7.14374 67.1063 6.71249C67.5 4.23749 67.0688 2.49374 65.8688 1.81874C65.5125 1.61249 65.1188 1.51874 64.6688 1.51874C63.3563 1.51874 61.6875 2.49374 60 4.12499C58.3125 2.49374 56.6438 1.51874 55.3313 1.51874C54.8813 1.51874 54.4875 1.61249 54.1313 1.81874C52.9313 2.51249 52.5 4.25624 52.8938 6.71249C52.9688 7.14374 53.0625 7.59374 53.175 8.04374C52.725 8.17499 52.2938 8.30624 51.8813 8.47499C49.5375 9.37499 48.2625 10.6125 48.2625 12C48.2625 13.3875 49.5563 14.625 51.8813 15.525C52.2938 15.675 52.725 15.825 53.175 15.9562C53.0625 16.4062 52.9688 16.8562 52.8938 17.2875C52.5 19.7625 52.9313 21.5062 54.1313 22.1812C54.4875 22.3875 54.8813 22.4812 55.3313 22.4812C56.6625 22.4812 58.3313 21.5062 60 19.875C61.6875 21.5062 63.3563 22.4812 64.6688 22.4812C65.1188 22.4812 65.5125 22.3875 65.8688 22.1812C67.0688 21.4875 67.5 19.7437 67.1063 17.2875C67.0313 16.8562 66.9375 16.4062 66.825 15.9562C67.275 15.825 67.7063 15.6937 68.1188 15.525C70.4625 14.625 71.7375 13.3875 71.7375 12C71.7375 10.6125 70.4625 9.37499 68.1188 8.47499ZM65.3438 2.75624C66.1125 3.20624 66.375 4.59374 66.0563 6.56249C66 6.95624 65.9063 7.36874 65.7938 7.79999C64.8188 7.57499 63.7875 7.42499 62.7 7.33124C62.0625 6.43124 61.4063 5.62499 60.75 4.89374C62.1375 3.52499 63.5438 2.58749 64.6875 2.58749C64.9313 2.58749 65.1563 2.64374 65.3438 2.75624ZM63.2438 13.875C62.9063 14.475 62.5125 15.075 62.1 15.675C61.4063 15.7312 60.7125 15.75 60 15.75C59.2688 15.75 58.575 15.7312 57.9 15.675C57.4875 15.075 57.1125 14.475 56.775 13.875C56.4188 13.2562 56.0813 12.6187 55.7813 12C56.0813 11.3812 56.4188 10.7437 56.775 10.125C57.1125 9.52499 57.5063 8.92499 57.9188 8.32499C58.6125 8.26874 59.3063 8.24999 60.0188 8.24999C60.75 8.24999 61.4438 8.26874 62.1188 8.32499C62.5313 8.92499 62.9063 9.52499 63.2438 10.125C63.6 10.7437 63.9375 11.3812 64.2375 12C63.9188 12.6187 63.6 13.2375 63.2438 13.875ZM64.8 13.2562C65.0813 13.9125 65.3063 14.55 65.5125 15.1875C64.875 15.3375 64.2 15.45 63.4875 15.5437C63.7125 15.1875 63.9563 14.8125 64.1625 14.4187C64.3875 14.025 64.5938 13.6312 64.8 13.2562ZM60 18.3375C59.55 17.85 59.1188 17.325 58.7063 16.7812C59.1375 16.8 59.5688 16.8187 60 16.8187C60.4313 16.8187 60.8625 16.8 61.2938 16.7812C60.8813 17.325 60.45 17.85 60 18.3375ZM56.5125 15.525C55.8 15.4312 55.125 15.3187 54.4875 15.1687C54.6938 14.55 54.9188 13.8937 55.2 13.2375C55.4063 13.6125 55.6125 14.0062 55.8375 14.3812C56.0625 14.7937 56.2875 15.15 56.5125 15.525ZM55.2 10.7437C54.9188 10.0875 54.6938 9.44999 54.4875 8.81249C55.125 8.66249 55.8 8.54999 56.5125 8.45624C56.2875 8.81249 56.0438 9.18749 55.8375 9.58124C55.6125 9.97499 55.4063 10.3687 55.2 10.7437ZM60 5.66249C60.45 6.14999 60.8813 6.67499 61.2938 7.21874C60.8625 7.19999 60.4313 7.18124 60 7.18124C59.5688 7.18124 59.1375 7.19999 58.7063 7.21874C59.1188 6.67499 59.55 6.14999 60 5.66249ZM64.1625 9.59999L63.4875 8.47499C64.2 8.56874 64.875 8.68124 65.5125 8.83124C65.3063 9.44999 65.0813 10.1062 64.8 10.7625C64.5938 10.3687 64.3875 9.97499 64.1625 9.59999ZM53.9438 6.56249C53.625 4.59374 53.8875 3.20624 54.6563 2.75624C54.8438 2.64374 55.0688 2.58749 55.3125 2.58749C56.4375 2.58749 57.8438 3.50624 59.25 4.89374C58.5938 5.60624 57.9375 6.43124 57.3 7.33124C56.2125 7.42499 55.1813 7.59374 54.2063 7.79999C54.0938 7.36874 54.0188 6.95624 53.9438 6.56249ZM49.3125 12C49.3125 11.1187 50.3813 10.1812 52.2563 9.48749C52.6313 9.33749 53.0438 9.20624 53.4563 9.09374C53.7563 10.0312 54.1313 11.025 54.5813 12.0187C54.1313 13.0125 53.7375 13.9875 53.4563 14.925C50.8688 14.175 49.3125 13.05 49.3125 12ZM54.6563 21.2437C53.8875 20.7937 53.625 19.4062 53.9438 17.4375C54 17.0437 54.0938 16.6312 54.2063 16.2C55.1813 16.425 56.2125 16.575 57.3 16.6687C57.9375 17.5687 58.5938 18.375 59.25 19.1062C57.8625 20.475 56.4563 21.4125 55.3125 21.4125C55.0688 21.4125 54.8438 21.3562 54.6563 21.2437ZM66.0563 17.4375C66.375 19.4062 66.1125 20.7937 65.3438 21.2437C65.1563 21.3562 64.9313 21.4125 64.6875 21.4125C63.5625 21.4125 62.1563 20.4937 60.75 19.1062C61.4063 18.3937 62.0625 17.5687 62.7 16.6687C63.7875 16.575 64.8188 16.4062 65.7938 16.2C65.9063 16.6312 65.9813 17.0437 66.0563 17.4375ZM67.7438 14.5125C67.3688 14.6625 66.9563 14.7937 66.5438 14.9062C66.2438 13.9687 65.8688 12.975 65.4188 11.9812C65.8688 10.9875 66.2625 10.0125 66.5438 9.07499C69.1313 9.82499 70.6875 10.95 70.6875 12C70.6875 12.8812 69.6 13.8187 67.7438 14.5125Z" fill="#9955E8"/>
</g>
<path d="M117.145 5.68763L108.876 0.88669C108.355 0.58969 107.676 0.58969 107.15 0.88669L98.7939 5.68763C98.2558 5.99719 97.875 6.579 97.875 7.20132V16.7904C97.875 17.4128 98.2658 17.9948 98.8039 18.306L101.012 19.56C102.067 20.0798 102.44 20.0798 102.92 20.0798C104.483 20.0798 105.375 19.1349 105.375 17.487V8.02013C105.375 7.88644 105.305 7.6875 105.174 7.6875H104.12C103.986 7.6875 103.688 7.88644 103.688 8.01994V17.4868C103.688 18.2173 103.027 18.9443 101.792 18.3268L99.5106 17.0119C99.4311 16.9688 99.375 16.8819 99.375 16.7904V7.20132C99.375 7.11094 99.4791 7.02019 99.5591 6.97388L107.889 2.18119C107.966 2.13713 108.081 2.13713 108.158 2.18119L116.386 6.97275C116.465 7.02019 116.437 7.10813 116.437 7.20132V16.7904C116.437 16.8819 116.472 16.971 116.394 17.0151L108.128 21.8106C108.057 21.8531 107.969 21.8531 107.891 21.8106L105.771 20.5451C105.707 20.508 105.631 20.4947 105.57 20.529C104.98 20.8633 104.871 20.9078 104.318 21.0996C104.182 21.147 103.981 21.2293 104.395 21.4613L107.17 23.1026C107.434 23.2556 107.735 23.3362 108.041 23.3363C108.349 23.3363 108.65 23.2564 108.916 23.1026L117.144 18.306C117.682 17.9925 117.938 17.4128 117.938 16.7904V7.20132C117.938 6.579 117.683 5.99869 117.145 5.68763ZM110.608 15.2709C108.41 15.2709 107.925 14.6644 107.764 13.5711C107.745 13.4533 107.645 13.3125 107.525 13.3125H106.451C106.318 13.3125 106.211 13.4738 106.211 13.6061C106.211 15.006 106.972 16.7021 110.608 16.7021C113.241 16.7021 114.75 15.6793 114.75 13.8692C114.75 12.0744 113.537 11.6034 110.984 11.2656C108.404 10.9245 108.142 10.7522 108.142 10.1477C108.142 9.64931 108.364 8.98463 110.275 8.98463C111.982 8.98463 112.611 9.351 112.87 10.5017C112.892 10.6099 112.991 10.6875 113.102 10.6875H114.181C114.248 10.6875 114.311 10.6607 114.358 10.6133C114.403 10.5623 114.426 10.4983 114.42 10.4297C114.253 8.44819 112.937 7.52475 110.274 7.52475C107.906 7.52475 106.493 8.52488 106.493 10.2013C106.493 12.0197 107.899 12.5222 110.172 12.747C112.892 13.0136 113.104 13.4111 113.104 13.9461C113.104 14.8751 112.358 15.2709 110.608 15.2709Z" fill="#9955E8"/>
<g clip-path="url(#clip2_269_156)">
<path d="M156.001 4.80035C152.801 4.80035 150.801 6.39973 150.001 9.59979C151.2 8.00023 152.601 7.40042 154.2 7.80035C155.114 8.02798 155.766 8.69023 156.489 9.4241C157.666 10.6179 159.027 12 162.001 12C165.201 12 167.2 10.4004 168.001 7.1996C166.801 8.8001 165.401 9.39992 163.801 8.99998C162.888 8.77217 162.236 8.1101 161.512 7.37623C160.336 6.18242 158.975 4.80035 156.001 4.80035ZM150.001 12C146.801 12 144.801 13.5995 144.001 16.8004C145.2 15.1999 146.601 14.6 148.2 15C149.114 15.2278 149.766 15.8899 150.489 16.6237C151.666 17.8175 153.027 19.1996 156.001 19.1996C159.201 19.1996 161.2 17.6002 162.001 14.4002C160.801 15.9997 159.401 16.5995 157.801 16.1996C156.888 15.972 156.236 15.3097 155.512 14.5759C154.336 13.382 152.975 12 150.001 12Z" fill="#9955E8"/>
</g>
<g clip-path="url(#clip3_269_156)">
<g clip-path="url(#clip4_269_156)">
<path d="M201.249 11.625H206.717C208.239 11.625 209.438 10.3372 209.438 8.80891V3.59678C209.438 2.11328 208.194 0.998784 206.708 0.751284C205.768 0.594721 204.797 0.523471 203.861 0.527971C202.925 0.532284 202.059 0.611971 201.272 0.751284C198.956 1.16022 198.563 2.0171 198.563 3.59678V5.62497H204V6.37497H196.458C194.867 6.37497 193.474 7.33272 193.039 9.15203C192.536 11.237 192.514 12.5118 193.039 14.6889C193.428 16.3093 194.357 17.4375 195.948 17.4375H197.813V14.991C197.813 13.184 199.393 11.625 201.249 11.625ZM200.905 4.29185C200.337 4.29185 199.878 3.82703 199.878 3.25216C199.878 2.67485 200.337 2.20572 200.905 2.20572C201.47 2.20572 201.932 2.67485 201.932 3.25216C201.932 3.82703 201.47 4.29185 200.905 4.29185ZM214.928 9.15203C214.534 7.56803 213.783 6.37497 212.19 6.37497H210.188V8.80891C210.188 10.6933 208.539 12.1875 206.717 12.1875H201.249C199.752 12.1875 198.563 13.5611 198.563 15.0611V20.2736C198.563 21.7567 199.827 22.6293 201.274 23.055C203.007 23.5644 204.648 23.6565 206.721 23.055C208.099 22.6558 209.438 21.8529 209.438 20.2736V18.1875H204V17.4375H212.19C213.781 17.4375 214.374 16.3545 214.928 14.6887C215.499 12.974 215.474 11.3514 214.928 9.15203ZM207.061 19.5782C207.629 19.5782 208.088 20.043 208.088 20.6182C208.088 21.195 207.629 21.6643 207.061 21.6643C206.496 21.6643 206.034 21.1952 206.034 20.6182C206.034 20.043 206.496 19.5782 207.061 19.5782Z" fill="#9955E8"/>
</g>
</g>
<defs>
<clipPath id="clip0_269_156">
<rect width="24" height="24" fill="white" transform="translate(0 0.198242)"/>
</clipPath>
<clipPath id="clip1_269_156">
<rect x="48" width="24" height="24" rx="12" fill="white"/>
</clipPath>
<clipPath id="clip2_269_156">
<rect width="24" height="24" fill="white" transform="translate(144)"/>
</clipPath>
<clipPath id="clip3_269_156">
<rect x="192" width="24" height="24" rx="12" fill="white"/>
</clipPath>
<clipPath id="clip4_269_156">
<rect width="24" height="24" fill="white" transform="translate(192)"/>
</clipPath>
</defs>
</svg>
